<svg width="16" height="16" viewBox="0 0 16 16" fill="none" xmlns="http://www.w3.org/2000/svg">
<g id="car">
<g id="vuesax/linear/car">
<g id="car_2">
<path id="Vector" d="M10.3403 1.88667H5.66033C4.00033 1.88667 3.63366 2.71333 3.42033 3.72667L2.66699 7.33333H13.3337L12.5803 3.72667C12.367 2.71333 12.0003 1.88667 10.3403 1.88667Z" stroke="#292D32" strokeLinecap="round" strokeLinejoin="round"/>
<path id="Vector_2" d="M14.6598 13.2133C14.7332 13.9933 14.1065 14.6667 13.3065 14.6667H12.0532C11.3332 14.6667 11.2332 14.36 11.1065 13.98L10.9732 13.58C10.7865 13.0333 10.6665 12.6667 9.70649 12.6667H6.29316C5.33316 12.6667 5.19316 13.08 5.02649 13.58L4.89316 13.98C4.76649 14.36 4.66649 14.6667 3.94649 14.6667H2.69316C1.89316 14.6667 1.26649 13.9933 1.33982 13.2133L1.71316 9.15333C1.80649 8.15333 1.99982 7.33333 3.74649 7.33333H12.2532C13.9998 7.33333 14.1932 8.15333 14.2865 9.15333L14.6598 13.2133Z" stroke="#292D32" strokeLinecap="round" strokeLinejoin="round"/>
<path id="Vector_3" d="M2.66667 5.33333H2" stroke="#292D32" strokeLinecap="round" strokeLinejoin="round"/>
<path id="Vector_4" d="M13.9997 5.33333H13.333" stroke="#292D32" strokeLinecap="round" strokeLinejoin="round"/>
<path id="Vector_5" d="M8 2V3.33333" stroke="#292D32" strokeLinecap="round" strokeLinejoin="round"/>
<path id="Vector_6" d="M7 3.33333H9" stroke="#292D32" strokeLinecap="round" strokeLinejoin="round"/>
<path id="Vector_7" d="M4 10H6" stroke="#292D32" strokeLinecap="round" strokeLinejoin="round"/>
<path id="Vector_8" d="M10 10H12" stroke="#292D32" strokeLinecap="round" strokeLinejoin="round"/>
</g>
</g>
</g>
</svg>
