<svg width="16" height="16" viewBox="0 0 16 16" fill="none" xmlns="http://www.w3.org/2000/svg">
<g id="like-shapes">
<g id="vuesax/linear/like-shapes">
<g id="like-shapes_2">
<path id="Vector" d="M7.16691 1.63329C7.62691 1.23996 8.38024 1.23996 8.84691 1.63329L9.90025 2.54003C10.1003 2.71337 10.4736 2.85335 10.7402 2.85335H11.8736C12.5802 2.85335 13.1602 3.4333 13.1602 4.13997V5.27335C13.1602 5.53335 13.3002 5.91336 13.4736 6.11336L14.3803 7.16666C14.7736 7.62666 14.7736 8.38001 14.3803 8.84667L13.4736 9.89998C13.3002 10.1 13.1602 10.4733 13.1602 10.74V11.8734C13.1602 12.58 12.5802 13.16 11.8736 13.16H10.7402C10.4802 13.16 10.1003 13.3 9.90025 13.4733L8.84691 14.38C8.38691 14.7733 7.63358 14.7733 7.16691 14.38L6.11359 13.4733C5.91359 13.3 5.54025 13.16 5.27358 13.16H4.12024C3.41357 13.16 2.83358 12.58 2.83358 11.8734V10.7333C2.83358 10.4733 2.69358 10.1 2.52692 9.89998L1.62691 8.84C1.24025 8.38 1.24025 7.63333 1.62691 7.17333L2.52692 6.11336C2.69358 5.91336 2.83358 5.54002 2.83358 5.28002V4.13997C2.83358 3.4333 3.41357 2.85335 4.12024 2.85335H5.27358C5.53358 2.85335 5.91359 2.71337 6.11359 2.54003L7.16691 1.63329Z" stroke="#292D32" strokeLinecap="round" strokeLinejoin="round"/>
<g id="Group">
<path id="Vector_2" d="M6.59342 9.87999L7.56008 10.6267C7.68675 10.7533 7.96676 10.8133 8.15342 10.8133H9.33341C9.70675 10.8133 10.1134 10.5333 10.2067 10.16L10.9534 7.87999C11.1067 7.44665 10.8268 7.06667 10.3601 7.06667H9.11342C8.92676 7.06667 8.77342 6.91338 8.80009 6.69338L8.95341 5.69338C9.01341 5.41338 8.82675 5.10003 8.54675 5.0067C8.30009 4.91336 7.98675 5.04 7.86009 5.22667L6.58008 7.12665" stroke="#292D32" stroke-miterlimit="10"/>
<path id="Vector_3" d="M5 9.87996V6.82666C5 6.38666 5.18667 6.23331 5.62667 6.23331H5.94C6.37334 6.23331 6.56667 6.38666 6.56667 6.82666V9.87996C6.56667 10.3133 6.38 10.4733 5.94 10.4733H5.62667C5.18667 10.4733 5 10.32 5 9.87996Z" stroke="#292D32" strokeLinecap="round" strokeLinejoin="round"/>
</g>
</g>
</g>
</g>
</svg>
