<svg width="20" height="20" viewBox="0 0 20 20" fill="none" xmlns="http://www.w3.org/2000/svg">
<g id="people">
<g id="vuesax/linear/people">
<g id="people_2">
<g id="Group">
<path id="Vector" d="M15.0004 5.96669C14.9504 5.95836 14.8921 5.95836 14.8421 5.96669C13.6921 5.92502 12.7754 4.98336 12.7754 3.81669C12.7754 2.62502 13.7337 1.66669 14.9254 1.66669C16.1171 1.66669 17.0754 2.63336 17.0754 3.81669C17.0671 4.98336 16.1504 5.92502 15.0004 5.96669Z" stroke="#898989" strokeLinecap="round" strokeLinejoin="round"/>
<path id="Vector_2" d="M14.1422 12.0334C15.2839 12.225 16.5422 12.025 17.4255 11.4334C18.6005 10.65 18.6005 9.3667 17.4255 8.58337C16.5339 7.9917 15.2589 7.79169 14.1172 7.99169" stroke="#898989" strokeLinecap="round" strokeLinejoin="round"/>
</g>
<g id="Group_2">
<path id="Vector_3" d="M4.97344 5.96669C5.02344 5.95836 5.08177 5.95836 5.13177 5.96669C6.28177 5.92502 7.19844 4.98336 7.19844 3.81669C7.19844 2.62502 6.24011 1.66669 5.04844 1.66669C3.85677 1.66669 2.89844 2.63336 2.89844 3.81669C2.90677 4.98336 3.82344 5.92502 4.97344 5.96669Z" stroke="#898989" strokeLinecap="round" strokeLinejoin="round"/>
<path id="Vector_4" d="M5.83255 12.0334C4.69088 12.225 3.43255 12.025 2.54922 11.4334C1.37422 10.65 1.37422 9.3667 2.54922 8.58337C3.44089 7.9917 4.71588 7.79169 5.85755 7.99169" stroke="#898989" strokeLinecap="round" strokeLinejoin="round"/>
</g>
<g id="Group_3">
<path id="Vector_5" d="M10.0004 12.1917C9.95039 12.1833 9.89206 12.1833 9.84206 12.1917C8.69206 12.15 7.77539 11.2083 7.77539 10.0417C7.77539 8.85 8.73372 7.89166 9.92539 7.89166C11.1171 7.89166 12.0754 8.85833 12.0754 10.0417C12.0671 11.2083 11.1504 12.1583 10.0004 12.1917Z" stroke="#898989" strokeLinecap="round" strokeLinejoin="round"/>
<path id="Vector_6" d="M7.57461 14.8167C6.39961 15.6 6.39961 16.8833 7.57461 17.6667C8.90794 18.5583 11.0913 18.5583 12.4246 17.6667C13.5996 16.8833 13.5996 15.6 12.4246 14.8167C11.0996 13.9333 8.90794 13.9333 7.57461 14.8167Z" stroke="#898989" strokeLinecap="round" strokeLinejoin="round"/>
</g>
</g>
</g>
</g>
</svg>
