<svg width="16" height="16" viewBox="0 0 16 16" fill="none" xmlns="http://www.w3.org/2000/svg">
<g id="routing">
<g id="vuesax/linear/routing">
<g id="routing_2">
<path id="Vector" d="M1.37971 3.06667C1.91304 0.760003 5.38638 0.760003 5.91305 3.06667C6.22638 4.42 5.36638 5.56667 4.61971 6.28C4.07304 6.8 3.21304 6.79334 2.66638 6.28C1.92638 5.56667 1.06638 4.42 1.37971 3.06667Z" stroke="#292D32"/>
<path id="Vector_2" d="M10.0467 11.0667C10.58 8.76 14.0733 8.76 14.6067 11.0667C14.92 12.42 14.06 13.5667 13.3067 14.28C12.76 14.8 11.8933 14.7933 11.3467 14.28C10.5933 13.5667 9.73333 12.42 10.0467 11.0667Z" stroke="#292D32"/>
<path id="Vector_3" d="M8.00013 3.33333H9.78679C11.0201 3.33333 11.5935 4.86 10.6668 5.67333L5.34013 10.3333C4.41346 11.14 4.98679 12.6667 6.21346 12.6667H8.00013" stroke="#292D32" strokeLinecap="round" strokeLinejoin="round"/>
<path id="Vector_4" d="M3.65748 3.66666H3.66518" stroke="#292D32" strokeLinecap="round" strokeLinejoin="round"/>
<path id="Vector_5" d="M12.3245 11.6667H12.3322" stroke="#292D32" strokeLinecap="round" strokeLinejoin="round"/>
</g>
</g>
</g>
</svg>
