<svg width="20" height="20" viewBox="0 0 20 20" fill="none" xmlns="http://www.w3.org/2000/svg">
<g id="star">
<g id="vuesax/linear/star">
<g id="star_2">
<path id="Vector" d="M11.4421 2.92501L12.9087 5.85835C13.1087 6.26668 13.6421 6.65835 14.0921 6.73335L16.7504 7.17501C18.4504 7.45835 18.8504 8.69168 17.6254 9.90835L15.5587 11.975C15.2087 12.325 15.0171 13 15.1254 13.4833L15.7171 16.0417C16.1837 18.0667 15.1087 18.85 13.3171 17.7917L10.8254 16.3167C10.3754 16.05 9.63375 16.05 9.17541 16.3167L6.68375 17.7917C4.90041 18.85 3.81708 18.0583 4.28375 16.0417L4.87541 13.4833C4.98375 13 4.79208 12.325 4.44208 11.975L2.37541 9.90835C1.15875 8.69168 1.55041 7.45835 3.25041 7.17501L5.90875 6.73335C6.35041 6.65835 6.88375 6.26668 7.08375 5.85835L8.55041 2.92501C9.35041 1.33335 10.6504 1.33335 11.4421 2.92501Z" stroke="#898989" strokeLinecap="round" strokeLinejoin="round"/>
</g>
</g>
</g>
</svg>
